<svg width="136" height="32" viewBox="0 0 136 32" fill="none" xmlns="http://www.w3.org/2000/svg">
<path d="M45.5323 10.436V12.38H40.2943V15.674H44.2903V17.618H40.2943V23H37.7563V10.436H45.5323ZM51.4537 12.884C52.1617 12.884 52.7917 13.034 53.3437 13.334C53.8957 13.634 54.3397 14.048 54.6757 14.576V13.028H57.1957V23H54.6757V21.326C54.3277 21.89 53.8777 22.334 53.3257 22.658C52.7857 22.982 52.1617 23.144 51.4537 23.144C50.6017 23.144 49.8217 22.928 49.1137 22.496C48.4177 22.052 47.8597 21.44 47.4397 20.66C47.0317 19.88 46.8277 18.992 46.8277 17.996C46.8277 17 47.0317 16.118 47.4397 15.35C47.8597 14.57 48.4177 13.964 49.1137 13.532C49.8217 13.1 50.6017 12.884 51.4537 12.884ZM52.0297 15.08C51.5857 15.08 51.1597 15.194 50.7517 15.422C50.3557 15.65 50.0317 15.986 49.7797 16.43C49.5277 16.862 49.4017 17.384 49.4017 17.996C49.4017 18.608 49.5277 19.142 49.7797 19.598C50.0317 20.042 50.3557 20.378 50.7517 20.606C51.1597 20.834 51.5857 20.948 52.0297 20.948C52.4857 20.948 52.9117 20.834 53.3077 20.606C53.7157 20.378 54.0457 20.042 54.2977 19.598C54.5497 19.154 54.6757 18.626 54.6757 18.014C54.6757 17.402 54.5497 16.874 54.2977 16.43C54.0457 15.986 53.7157 15.65 53.3077 15.422C52.9117 15.194 52.4857 15.08 52.0297 15.08ZM65.5211 12.884C66.2651 12.884 66.9251 13.052 67.5011 13.388C68.0891 13.712 68.5511 14.198 68.8871 14.846C69.2231 15.482 69.3911 16.244 69.3911 17.132V23H66.8711V17.492C66.8711 16.712 66.6731 16.118 66.2771 15.71C65.8811 15.29 65.3411 15.08 64.6571 15.08C63.9731 15.08 63.4271 15.29 63.0191 15.71C62.6231 16.118 62.4251 16.712 62.4251 17.492V23H59.8871V9.68H62.4251V14.522C62.7371 13.994 63.1571 13.592 63.6851 13.316C64.2251 13.028 64.8371 12.884 65.5211 12.884ZM71.7284 10.49C71.7284 10.058 71.8784 9.692 72.1784 9.392C72.4784 9.092 72.8384 8.942 73.2584 8.942C73.6904 8.942 74.0564 9.092 74.3564 9.392C74.6564 9.692 74.8064 10.058 74.8064 10.49C74.8064 10.922 74.6564 11.288 74.3564 11.588C74.0564 11.888 73.6904 12.038 73.2584 12.038C72.8384 12.038 72.4784 11.888 72.1784 11.588C71.8784 11.288 71.7284 10.922 71.7284 10.49ZM74.5364 13.028V23H71.9984V13.028H74.5364ZM81.1607 12.884C81.8687 12.884 82.4987 13.034 83.0507 13.334C83.6027 13.634 84.0467 14.048 84.3827 14.576V9.68H86.9027V23H84.3827V21.326C84.0347 21.89 83.5847 22.334 83.0327 22.658C82.4927 22.982 81.8687 23.144 81.1607 23.144C80.3087 23.144 79.5287 22.928 78.8207 22.496C78.1247 22.052 77.5667 21.44 77.1467 20.66C76.7387 19.88 76.5347 18.992 76.5347 17.996C76.5347 17 76.7387 16.118 77.1467 15.35C77.5667 14.57 78.1247 13.964 78.8207 13.532C79.5287 13.1 80.3087 12.884 81.1607 12.884ZM81.7367 15.08C81.2927 15.08 80.8667 15.194 80.4587 15.422C80.0627 15.65 79.7387 15.986 79.4867 16.43C79.2347 16.862 79.1087 17.384 79.1087 17.996C79.1087 18.608 79.2347 19.142 79.4867 19.598C79.7387 20.042 80.0627 20.378 80.4587 20.606C80.8667 20.834 81.2927 20.948 81.7367 20.948C82.1927 20.948 82.6187 20.834 83.0147 20.606C83.4227 20.378 83.7527 20.042 84.0047 19.598C84.2567 19.154 84.3827 18.626 84.3827 18.014C84.3827 17.402 84.2567 16.874 84.0047 16.43C83.7527 15.986 83.4227 15.65 83.0147 15.422C82.6187 15.194 82.1927 15.08 81.7367 15.08Z" fill="white"/>
<path d="M96.3801 16.574C97.2081 16.694 97.8681 17.054 98.3601 17.654C98.8641 18.242 99.1161 18.926 99.1161 19.706C99.1161 20.354 98.9481 20.93 98.6121 21.434C98.2881 21.926 97.8141 22.31 97.1901 22.586C96.5661 22.862 95.8281 23 94.9761 23H89.5941V10.436H94.6881C95.5401 10.436 96.2781 10.58 96.9021 10.868C97.5381 11.156 98.0181 11.552 98.3421 12.056C98.6661 12.56 98.8281 13.124 98.8281 13.748C98.8281 14.456 98.6121 15.05 98.1801 15.53C97.7601 15.998 97.1601 16.346 96.3801 16.574ZM92.1321 15.638H94.4181C94.9821 15.638 95.4261 15.5 95.7501 15.224C96.0861 14.936 96.2541 14.534 96.2541 14.018C96.2541 13.502 96.0861 13.1 95.7501 12.812C95.4261 12.524 94.9821 12.38 94.4181 12.38H92.1321V15.638ZM94.6881 21.056C95.2521 21.056 95.7021 20.906 96.0381 20.606C96.3861 20.294 96.5601 19.868 96.5601 19.328C96.5601 18.788 96.3861 18.362 96.0381 18.05C95.6901 17.738 95.2341 17.582 94.6701 17.582H92.1321V21.056H94.6881ZM105.225 12.884C105.933 12.884 106.563 13.034 107.115 13.334C107.667 13.634 108.111 14.048 108.447 14.576V13.028H110.967V23H108.447V21.326C108.099 21.89 107.649 22.334 107.097 22.658C106.557 22.982 105.933 23.144 105.225 23.144C104.373 23.144 103.593 22.928 102.885 22.496C102.189 22.052 101.631 21.44 101.211 20.66C100.803 19.88 100.599 18.992 100.599 17.996C100.599 17 100.803 16.118 101.211 15.35C101.631 14.57 102.189 13.964 102.885 13.532C103.593 13.1 104.373 12.884 105.225 12.884ZM105.801 15.08C105.357 15.08 104.931 15.194 104.523 15.422C104.127 15.65 103.803 15.986 103.551 16.43C103.299 16.862 103.173 17.384 103.173 17.996C103.173 18.608 103.299 19.142 103.551 19.598C103.803 20.042 104.127 20.378 104.523 20.606C104.931 20.834 105.357 20.948 105.801 20.948C106.257 20.948 106.683 20.834 107.079 20.606C107.487 20.378 107.817 20.042 108.069 19.598C108.321 19.154 108.447 18.626 108.447 18.014C108.447 17.402 108.321 16.874 108.069 16.43C107.817 15.986 107.487 15.65 107.079 15.422C106.683 15.194 106.257 15.08 105.801 15.08ZM119.293 12.884C120.037 12.884 120.697 13.052 121.273 13.388C121.861 13.712 122.323 14.198 122.659 14.846C122.995 15.482 123.163 16.244 123.163 17.132V23H120.643V17.492C120.643 16.712 120.445 16.118 120.049 15.71C119.653 15.29 119.113 15.08 118.429 15.08C117.745 15.08 117.199 15.29 116.791 15.71C116.395 16.118 116.197 16.712 116.197 17.492V23H113.659V13.028H116.197V14.522C116.509 13.994 116.929 13.592 117.457 13.316C117.997 13.028 118.609 12.884 119.293 12.884ZM130.684 18.068L135.112 23H131.728L128.308 18.842V23H125.77V9.68H128.308V17.294L131.674 13.028H135.112L130.684 18.068Z" fill="#5CE1E6"/>
<path d="M16.4062 0C13.2417 -3.77363e-08 10.1483 0.938383 7.51713 2.69649C4.88594 4.45459 2.83518 6.95345 1.62418 9.87706C0.413176 12.8007 0.096322 16.0177 0.713685 19.1214C1.33105 22.2251 2.8549 25.0761 5.09254 27.3137C7.33018 29.5513 10.1811 31.0752 13.2848 31.6926C16.3885 32.3099 19.6056 31.9931 22.5292 30.7821C25.4528 29.5711 27.9517 27.5203 29.7098 24.8891C31.4679 22.2579 32.4062 19.1645 32.4062 16L24.4062 16C24.4062 17.5823 23.9371 19.129 23.058 20.4446C22.179 21.7602 20.9295 22.7855 19.4677 23.391C18.0059 23.9965 16.3974 24.155 14.8455 23.8463C13.2937 23.5376 11.8682 22.7757 10.7494 21.6569C9.63057 20.538 8.86865 19.1126 8.55997 17.5607C8.25129 16.0089 8.40971 14.4003 9.01521 12.9385C9.62072 11.4767 10.6461 10.2273 11.9617 9.34824C13.2773 8.46919 14.824 8 16.4062 8V0Z" fill="white"/>
<path d="M16.4062 0C14.3051 -2.5056e-08 12.2245 0.413852 10.2833 1.21793C8.3421 2.022 6.57828 3.20055 5.09254 4.68629C3.6068 6.17203 2.42825 7.93586 1.62418 9.87707C0.820102 11.8183 0.40625 13.8989 0.40625 16H8.40625C8.40625 14.9494 8.61318 13.9091 9.01521 12.9385C9.41725 11.9679 10.0065 11.086 10.7494 10.3431C11.4923 9.60028 12.3742 9.011 13.3448 8.60896C14.3154 8.20693 15.3557 8 16.4062 8V0Z" fill="#5CE1E6"/>
<circle cx="16.4062" cy="16" r="5" fill="#5CE1E6"/>
<path d="M21.4062 16C21.4062 15.3434 21.2769 14.6932 21.0256 14.0866C20.7744 13.48 20.4061 12.9288 19.9418 12.4645C19.4775 12.0002 18.9263 11.6319 18.3197 11.3806C17.713 11.1293 17.0629 11 16.4062 11C15.7496 11 15.0995 11.1293 14.4928 11.3806C13.8862 11.6319 13.335 12.0002 12.8707 12.4645C12.4064 12.9288 12.0381 13.48 11.7869 14.0866C11.5356 14.6932 11.4062 15.3434 11.4063 16L16.4062 16H21.4062Z" fill="white"/>
</svg>
